<svg width="21" height="20" viewBox="0 0 21 20" fill="none" xmlns="http://www.w3.org/2000/svg">
<path d="M10.5014 0C5.08039 0 0.501389 4.579 0.501389 10C0.501389 15.421 5.08039 20 10.5014 20C15.9224 20 20.5014 15.421 20.5014 10C20.5014 4.579 15.9224 0 10.5014 0ZM10.5014 5C12.2284 5 13.5014 6.272 13.5014 8C13.5014 9.728 12.2284 11 10.5014 11C8.77539 11 7.50139 9.728 7.50139 8C7.50139 6.272 8.77539 5 10.5014 5ZM5.39539 14.772C6.29239 13.452 7.78839 12.572 9.50139 12.572H11.5014C13.2154 12.572 14.7104 13.452 15.6074 14.772C14.3294 16.14 12.5164 17 10.5014 17C8.48639 17 6.67339 16.14 5.39539 14.772Z" fill="#054752"/>
</svg>
