<svg width="21" height="29" viewBox="0 0 21 29" fill="none" xmlns="http://www.w3.org/2000/svg">
<path d="M10.5 12.615C9.70888 12.615 8.93552 12.3804 8.27772 11.9409C7.61993 11.5014 7.10723 10.8766 6.80448 10.1457C6.50173 9.41483 6.42252 8.61056 6.57686 7.83464C6.7312 7.05871 7.11216 6.34598 7.67157 5.78657C8.23098 5.22716 8.94372 4.8462 9.71964 4.69186C10.4956 4.53752 11.2998 4.61673 12.0307 4.91948C12.7616 5.22223 13.3864 5.73492 13.8259 6.39272C14.2654 7.05052 14.5 7.82387 14.5 8.615C14.4968 9.67489 14.0744 10.6905 13.3249 11.4399C12.5755 12.1894 11.5599 12.6118 10.5 12.615V12.615ZM10.5 6.615C10.1044 6.615 9.71776 6.7323 9.38886 6.95206C9.05996 7.17182 8.80362 7.48418 8.65224 7.84963C8.50087 8.21509 8.46126 8.61722 8.53843 9.00518C8.6156 9.39314 8.80608 9.74951 9.08579 10.0292C9.36549 10.3089 9.72186 10.4994 10.1098 10.5766C10.4978 10.6537 10.8999 10.6141 11.2654 10.4628C11.6308 10.3114 11.9432 10.055 12.1629 9.72614C12.3827 9.39724 12.5 9.01056 12.5 8.615C12.4984 8.08505 12.2872 7.57726 11.9125 7.20253C11.5377 6.8278 11.0299 6.61658 10.5 6.615V6.615Z" fill="#054752"/>
<path d="M18.5 0.615H2.5C1.96973 0.615529 1.46133 0.826413 1.08637 1.20137C0.711413 1.57633 0.500529 2.08473 0.5 2.615V26.615C0.500529 27.1453 0.711413 27.6537 1.08637 28.0286C1.46133 28.4036 1.96973 28.6145 2.5 28.615H18.5C19.0303 28.6145 19.5387 28.4036 19.9136 28.0286C20.2886 27.6537 20.4995 27.1453 20.5 26.615V2.615C20.4995 2.08473 20.2886 1.57633 19.9136 1.20137C19.5387 0.826413 19.0303 0.615529 18.5 0.615V0.615ZM6.5 22.615V16.615C6.49198 16.4816 6.51235 16.348 6.55977 16.223C6.60719 16.0981 6.68057 15.9846 6.77508 15.8901C6.86959 15.7956 6.98307 15.7222 7.10803 15.6748C7.23299 15.6274 7.36659 15.607 7.5 15.615H13.5C13.6334 15.607 13.767 15.6274 13.892 15.6748C14.0169 15.7222 14.1304 15.7956 14.2249 15.8901C14.3194 15.9846 14.3928 16.0981 14.4402 16.223C14.4876 16.348 14.508 16.4816 14.5 16.615V22.615H12.5V26.615H8.5V22.615H6.5ZM14.5 26.615V24.615C15.0299 24.6134 15.5377 24.4022 15.9125 24.0275C16.2872 23.6527 16.4984 23.1449 16.5 22.615V16.615C16.5073 16.219 16.4347 15.8256 16.2866 15.4583C16.1384 15.091 15.9177 14.7574 15.6376 14.4774C15.3576 14.1973 15.024 13.9766 14.6567 13.8284C14.2894 13.6803 13.896 13.6077 13.5 13.615H7.5C7.10402 13.6077 6.71063 13.6803 6.34334 13.8284C5.97605 13.9766 5.64241 14.1973 5.36236 14.4774C5.08231 14.7574 4.8616 15.091 4.71343 15.4583C4.56526 15.8256 4.49267 16.219 4.5 16.615V22.615C4.50158 23.1449 4.7128 23.6527 5.08753 24.0275C5.46227 24.4022 5.97005 24.6134 6.5 24.615V26.615H2.5V2.615H18.5V26.615H14.5Z" fill="#054752"/>
</svg>
