<svg width="41" height="32" viewBox="0 0 41 32" fill="none" xmlns="http://www.w3.org/2000/svg">
<path d="M5.072 12.726C5.74431 10.5371 7.00604 8.57551 8.719 7.056C7.787 6.311 8.719 1.68 8.719 1.68C8.719 1.68 12.445 3.33 13.111 4.102C13.111 4.102 15.985 0.615 24.317 0.615C32.649 0.615 40.5 7.057 40.5 15.654C40.5 24.251 34.271 26.993 34.271 26.993C33.9465 28.5099 33.4465 29.9838 32.781 31.385H29.48C28.9534 30.5748 28.4823 29.7299 28.07 28.856C28.07 28.856 25.435 29.176 23.545 29.176C22.2132 29.1489 20.8862 29.0063 19.579 28.75C19.4662 29.6862 19.1479 30.586 18.647 31.385H15.054C13.936 30.427 13.377 27.419 13.377 27.419C13.377 27.419 4.327 23.32 2.41 20.87C1.371 18.927 1.504 14.615 1.504 14.615C2.51032 13.6882 3.73903 13.0372 5.071 12.725L5.072 12.726Z" stroke="#054752" stroke-linecap="round" stroke-linejoin="round"/>
<path d="M16.544 5.779C18.6766 4.24573 21.2681 3.48523 23.891 3.623C26.7568 3.57584 29.5599 4.46364 31.876 6.152" stroke="#054752" stroke-linecap="round" stroke-linejoin="round"/>
<path d="M8.612 14.035C9.02621 14.035 9.362 13.6992 9.362 13.285C9.362 12.8708 9.02621 12.535 8.612 12.535C8.19779 12.535 7.862 12.8708 7.862 13.285C7.862 13.6992 8.19779 14.035 8.612 14.035Z" fill="black"/>
</svg>
