<svg width="20" height="29" viewBox="0 0 20 29" fill="none" xmlns="http://www.w3.org/2000/svg">
<path d="M5.11 28.535C4.90536 28.4486 4.7353 28.2966 4.62665 28.1028C4.51801 27.9091 4.47697 27.6847 4.51 27.465L6.33 15.615H1.5C1.34688 15.6191 1.19485 15.588 1.05566 15.5241C0.916461 15.4601 0.793816 15.365 0.697185 15.2462C0.600555 15.1273 0.53252 14.9879 0.498332 14.8386C0.464143 14.6892 0.464714 14.5341 0.500001 14.385L3.5 1.385C3.55279 1.16127 3.68105 0.962557 3.86318 0.822313C4.04532 0.682069 4.27021 0.608856 4.5 0.615H14.5C14.6494 0.614492 14.797 0.647463 14.932 0.711492C15.067 0.77552 15.1859 0.868979 15.28 0.984999C15.3754 1.10233 15.443 1.23979 15.4777 1.38702C15.5123 1.53425 15.5131 1.68742 15.48 1.835L13.75 9.615H18.5C18.6874 9.61462 18.8712 9.66693 19.0303 9.76594C19.1894 9.86496 19.3175 10.0067 19.4 10.175C19.4717 10.3365 19.4992 10.5142 19.4799 10.6898C19.4606 10.8655 19.3951 11.0329 19.29 11.175L6.29 28.175C6.20214 28.3052 6.08483 28.4129 5.94758 28.4894C5.81032 28.5658 5.65699 28.6089 5.5 28.615C5.36619 28.6125 5.23399 28.5854 5.11 28.535V28.535ZM11.25 11.615L13.25 2.615H5.3L2.76 13.615H8.67L7.08 23.895L16.5 11.615H11.25Z" fill="#054752"/>
</svg>
