<svg id="Layer_1" data-name="Layer 1" xmlns="http://www.w3.org/2000/svg" viewBox="0 0 533.64 97.22"><defs><style>.cls-1{fill:#054752;}</style></defs><path class="cls-1" d="M238.06,463.3A46.64,46.64,0,0,1,220.38,446a51.18,51.18,0,0,1,0-50,46.64,46.64,0,0,1,17.68-17.34,51.11,51.11,0,0,1,49,0,46.42,46.42,0,0,1,17.54,17.34,51.73,51.73,0,0,1,0,50A46.25,46.25,0,0,1,287,463.3a51,51,0,0,1-48.95,0Zm39.57-14.62a26.45,26.45,0,0,0,10.19-11.08,36.31,36.31,0,0,0,3.67-16.72,35.92,35.92,0,0,0-3.67-16.66,26.16,26.16,0,0,0-10.19-11,29.53,29.53,0,0,0-15.1-3.8,29.86,29.86,0,0,0-15.16,3.8,26,26,0,0,0-10.26,11,35.92,35.92,0,0,0-3.68,16.66,36.32,36.32,0,0,0,3.68,16.72,26.29,26.29,0,0,0,10.26,11.08,29.31,29.31,0,0,0,15.16,3.88A29,29,0,0,0,277.63,448.68Z" transform="translate(-30.82 -372.33)"/><path class="cls-1" d="M410,375,375.9,468a1,1,0,0,1-.94.65H353.24a1,1,0,0,1-.94-.65L318.23,375a1,1,0,0,1,.94-1.35h18.25a1,1,0,0,1,.95.68l24.92,72.05a1,1,0,0,0,1.89,0L390,374.37a1,1,0,0,1,.94-.68H409A1,1,0,0,1,410,375Z" transform="translate(-30.82 -372.33)"/><path class="cls-1" d="M440.93,390.06v21.79a1,1,0,0,0,1,1h29.95a1,1,0,0,1,1,1V427a1,1,0,0,1-1,1H441.93a1,1,0,0,0-1,1V452.1a1,1,0,0,0,1,1h34a1,1,0,0,1,1,1v13.5a1,1,0,0,1-1,1H422.89a1,1,0,0,1-1-1v-93a1,1,0,0,1,1-1H476a1,1,0,0,1,1,1v13.5a1,1,0,0,1-1,1h-34A1,1,0,0,0,440.93,390.06Z" transform="translate(-30.82 -372.33)"/><path class="cls-1" d="M542.89,468.1l-20.36-36a1,1,0,0,0-.87-.51h-7.39a1,1,0,0,0-1,1v35a1,1,0,0,1-1,1h-17a1,1,0,0,1-1-1V374.69a1,1,0,0,1,1-1h34.62q11,0,18.77,3.88A27,27,0,0,1,560.24,388a28.51,28.51,0,0,1,3.88,14.75,28.22,28.22,0,0,1-5.44,16.93q-5.11,7.11-14.93,10a1,1,0,0,0-.6,1.46l21.17,35.87a1,1,0,0,1-.86,1.5h-19.7A1,1,0,0,1,542.89,468.1Zm-29.62-51.76a1,1,0,0,0,1,1h14.9q7.76,0,11.56-3.74t3.81-10.4q0-6.52-3.81-10.13t-11.56-3.6h-14.9a1,1,0,0,0-1,1Z" transform="translate(-30.82 -372.33)"/><path class="cls-1" d="M262.46,440.6a19.45,19.45,0,1,1,19.45-19.45A19.47,19.47,0,0,1,262.46,440.6Zm0-27.25a7.8,7.8,0,1,0,7.8,7.8A7.81,7.81,0,0,0,262.46,413.35Z" transform="translate(-30.82 -372.33)"/><rect class="cls-1" x="245.27" y="42.99" width="15.41" height="11.65"/><rect class="cls-1" x="225.82" y="62.44" width="11.65" height="17.79"/><rect class="cls-1" x="202.62" y="42.99" width="15.41" height="11.65"/><path class="cls-1" d="M199.72,374.7v92.91a1,1,0,0,1-1,1H181.67a1,1,0,0,1-1-1V411.93a1,1,0,0,0-1.92-.39L155.51,468a1,1,0,0,1-.93.62H141.51a1,1,0,0,1-.92-.61L117.2,411.51a1,1,0,0,0-1.92.38v55.72a1,1,0,0,1-1,1h-17a1,1,0,0,1-1-1V438.31a6.64,6.64,0,0,0-6.64-6.64H37a6.09,6.09,0,0,1-6.17-6.14A5.85,5.85,0,0,1,36.68,420H89.17a7.08,7.08,0,0,0,7.07-7.08h0a7.08,7.08,0,0,0-7.07-7.07H73.49a6.05,6.05,0,0,1-6.13-5.45,5.86,5.86,0,0,1,5.85-6.27h18.7a4.33,4.33,0,0,0,4.33-4.33h0a4.33,4.33,0,0,0-4.33-4.34H50.27a5.86,5.86,0,1,1,0-11.72H117.2a1,1,0,0,1,.92.6l29,67.82a1,1,0,0,0,1.84,0l29-67.82a1,1,0,0,1,.92-.6h19.82A1,1,0,0,1,199.72,374.7Z" transform="translate(-30.82 -372.33)"/><circle class="cls-1" cx="26.29" cy="27.6" r="5.86"/></svg>